<svg width="28" height="22" viewBox="0 0 28 22" fill="none" xmlns="http://www.w3.org/2000/svg">
<path d="M3.11111 0.888672C2.28599 0.888672 1.49467 1.21645 0.911223 1.7999C0.327777 2.38334 0 3.17466 0 3.99978L0 17.9998C0 18.8249 0.327777 19.6162 0.911223 20.1997C1.49467 20.7831 2.28599 21.1109 3.11111 21.1109H7.77778V0.888672H3.11111ZM24.8889 0.888672H20.2222V21.1109H24.8889C25.714 21.1109 26.5053 20.7831 27.0888 20.1997C27.6722 19.6162 28 18.8249 28 17.9998V3.99978C28 3.17466 27.6722 2.38334 27.0888 1.7999C26.5053 1.21645 25.714 0.888672 24.8889 0.888672Z" fill="#D52B1E"/>
<path d="M7.7793 0.888672H20.2237V21.1109H7.7793V0.888672Z" fill="#EEEEEE"/>
<path d="M14.4796 14.1987C15.4113 14.3068 16.2467 14.404 17.1777 14.5106L16.9405 13.7312C16.923 13.6642 16.9254 13.5935 16.9474 13.5278C16.9693 13.462 17.0099 13.4041 17.0641 13.361L19.77 11.1568L19.21 10.8931C18.9635 10.8052 19.0311 10.666 19.1206 10.3316L19.5336 8.82578L17.9617 9.15789C17.8085 9.18122 17.7066 9.084 17.6832 8.99067L17.4802 8.28211L16.2373 9.67744C16.0608 9.90144 15.703 9.90144 15.8142 9.385L16.3455 6.55855L15.6322 6.928C15.4323 7.04 15.2325 7.05867 15.1212 6.85878L14.1373 5.01855V5.06444V5.01855L13.1535 6.85878C13.0415 7.05867 12.8416 7.04 12.6417 6.928L11.9292 6.55855L12.4605 9.385C12.5725 9.90144 12.2139 9.90144 12.0374 9.67744L10.7945 8.28289L10.5922 8.99144C10.5689 9.08478 10.4662 9.182 10.313 9.15867L8.74113 8.82656L9.15413 10.3323C9.24202 10.6668 9.31046 10.806 9.06391 10.8939L8.50391 11.1576L11.2098 13.3618C11.3171 13.445 11.3716 13.5951 11.3327 13.732L11.0955 14.5113L13.7943 14.1994C13.8768 14.1994 13.9312 14.2453 13.9305 14.3402L13.764 17.2211H14.5076L14.3419 14.3402C14.3435 14.2446 14.3971 14.1987 14.4796 14.1987Z" fill="#D52B1E"/>
</svg>
