<svg width="38" height="38" viewBox="0 0 38 38" fill="none" xmlns="http://www.w3.org/2000/svg">
<path d="M4.46869 4H5.87519V4.448C7.83319 4.886 8.11469 6.7035 8.22519 7.398C8.27769 7.7265 8.38419 8.369 8.51619 9.156H33.0062C33.9752 9.156 34.0837 10.0615 33.9572 10.5625L31.0842 23.246C30.9582 23.747 30.4277 24.156 29.9077 24.156H8.43568C7.91868 24.156 7.49718 24.5765 7.49718 25.0935C7.49718 25.6105 7.91868 26.031 8.43568 26.031H31.8727C32.1213 26.031 32.3598 26.1298 32.5356 26.3056C32.7114 26.4814 32.8102 26.7199 32.8102 26.9685C32.8102 27.2171 32.7114 27.4556 32.5356 27.6314C32.3598 27.8072 32.1213 27.906 31.8727 27.906H30.6577C31.2443 28.2299 31.7334 28.7052 32.0739 29.2823C32.4144 29.8595 32.5939 30.5174 32.5937 31.1875H31.6562C31.6562 32.74 30.3962 34 28.8437 34C27.2912 34 26.0312 32.74 26.0312 31.1875H25.0937C25.0936 30.5173 25.2732 29.8594 25.6138 29.2823C25.9544 28.7051 26.4435 28.2299 27.0302 27.906H13.7832C14.3699 28.2299 14.859 28.7051 15.1996 29.2823C15.5402 29.8594 15.7198 30.5173 15.7197 31.1875H14.7822C14.7683 31.9244 14.4658 32.6264 13.9398 33.1426C13.4138 33.6588 12.7062 33.948 11.9692 33.948C11.2322 33.948 10.5246 33.6588 9.99858 33.1426C9.47255 32.6264 9.17008 31.9244 9.15619 31.1875H8.21869C8.21863 30.5174 8.39819 29.8596 8.73868 29.2824C9.07917 28.7053 9.56814 28.23 10.1547 27.906H8.43468C7.68888 27.9056 6.97375 27.6092 6.44639 27.0818C5.91903 26.5544 5.62258 25.8393 5.62218 25.0935C5.62225 24.7241 5.69508 24.3583 5.8365 24.017C5.97793 23.6758 6.18519 23.3657 6.44645 23.1046C6.7077 22.8434 7.01784 22.6362 7.35916 22.4949C7.70047 22.3536 8.06628 22.2809 8.43568 22.281H8.78419L7.58518 14.826C7.25118 12.857 6.53119 8.6035 6.36218 7.5455C6.27719 7.011 6.19468 6.6355 5.87519 6.425V6.812H4.46869C4.34464 6.81161 4.22578 6.76219 4.13802 6.67452C4.05026 6.58685 4.00071 6.46805 4.00019 6.344V4.469C4.00045 4.34478 4.04988 4.22572 4.13767 4.13783C4.22546 4.04995 4.34447 4.0004 4.46869 4ZM28.8437 32.594C29.2166 32.5936 29.5741 32.4453 29.8378 32.1816C30.1015 31.9179 30.2498 31.5604 30.2502 31.1875H27.4377C27.4381 31.5603 27.5863 31.9178 27.8499 32.1814C28.1135 32.4451 28.4709 32.5935 28.8437 32.594ZM11.9687 32.594C12.3417 32.5937 12.6993 32.4455 12.9631 32.1818C13.2269 31.9181 13.3753 31.5605 13.3757 31.1875H10.5622C10.5628 31.5603 10.7112 31.9177 10.9749 32.1813C11.2385 32.4449 11.5959 32.5933 11.9687 32.594ZM13.1222 11.497C13.1057 11.3699 13.0441 11.253 12.9487 11.1675C12.8533 11.082 12.7303 11.0335 12.6022 11.031H9.63368C9.37568 11.031 9.19618 11.239 9.23668 11.4945L9.53069 13.38C9.56968 13.635 9.81419 13.8435 10.0727 13.8435H12.9042C12.9638 13.8451 13.0231 13.8337 13.0779 13.8102C13.1327 13.7867 13.1818 13.7516 13.2217 13.7073C13.2617 13.663 13.2916 13.6106 13.3094 13.5537C13.3271 13.4968 13.3324 13.4366 13.3247 13.3775L13.1222 11.497ZM13.6267 16.1845C13.6099 16.0575 13.5482 15.9408 13.4529 15.8553C13.3575 15.7699 13.2347 15.7213 13.1067 15.7185H10.3652C10.1067 15.7185 9.92768 15.9265 9.96668 16.182L10.1882 17.599C10.2277 17.854 10.4717 18.0625 10.7302 18.0625H13.3587C13.4183 18.0639 13.4774 18.0524 13.5322 18.0289C13.5869 18.0053 13.6359 17.9702 13.6758 17.926C13.7158 17.8817 13.7457 17.8294 13.7635 17.7725C13.7813 17.7157 13.7867 17.6556 13.7792 17.5965L13.6267 16.1845ZM31.5672 13.3885L32.0422 11.486C32.1042 11.235 31.9432 11.031 31.6847 11.031H28.1552C27.8962 11.031 27.6627 11.2405 27.6352 11.497L27.4332 13.378C27.4257 13.4371 27.431 13.4971 27.4488 13.5539C27.4666 13.6107 27.4965 13.663 27.5364 13.7073C27.5762 13.7515 27.6252 13.7866 27.6799 13.8102C27.7345 13.8338 27.7937 13.8453 27.8532 13.844H30.9837C31.2417 13.844 31.5047 13.6385 31.5672 13.3885ZM29.9317 18.0625C30.1897 18.0625 30.4527 17.8575 30.5147 17.6075L30.8727 16.174C30.9352 15.923 30.7752 15.719 30.5167 15.719H27.6522C27.3937 15.719 27.1597 15.9285 27.1322 16.185L26.9802 17.597C26.9726 17.6561 26.9779 17.7161 26.9957 17.773C27.0134 17.8299 27.0433 17.8822 27.0832 17.9265C27.1231 17.9707 27.172 18.0058 27.2267 18.0294C27.2815 18.053 27.3406 18.0644 27.4002 18.063L29.9317 18.0625ZM26.9472 22.2815H28.8797C29.1392 22.2815 29.4007 22.0765 29.4632 21.8265L29.8212 20.393C29.8832 20.142 29.7232 19.938 29.4642 19.938H27.1992C26.9407 19.938 26.7067 20.1475 26.6782 20.404L26.5272 21.816C26.5196 21.8751 26.5249 21.9351 26.5427 21.9919C26.5604 22.0488 26.5903 22.1011 26.6302 22.1453C26.6701 22.1895 26.7191 22.2246 26.7738 22.2481C26.8285 22.2716 26.8877 22.283 26.9472 22.2815ZM21.2012 21.8125C21.2017 21.9369 21.2514 22.056 21.3395 22.1439C21.4275 22.2318 21.5468 22.2812 21.6712 22.2815H24.1167C24.2447 22.2789 24.3676 22.2304 24.4629 22.1449C24.5582 22.0594 24.6197 21.9425 24.6362 21.8155L24.7882 20.4035C24.7959 20.3444 24.7908 20.2844 24.7731 20.2275C24.7554 20.1706 24.7256 20.1182 24.6858 20.0739C24.6459 20.0296 24.5969 19.9945 24.5422 19.9709C24.4874 19.9474 24.4283 19.936 24.3687 19.9375H21.6712C21.5467 19.9375 21.4273 19.9869 21.3392 20.0748C21.2511 20.1627 21.2015 20.282 21.2012 20.4065V21.8125ZM21.2012 17.594C21.2017 17.7184 21.2514 17.8375 21.3395 17.9254C21.4275 18.0133 21.5468 18.0627 21.6712 18.063H24.5702C24.8282 18.063 25.0612 17.8535 25.0902 17.597L25.2412 16.185C25.2488 16.1259 25.2436 16.0659 25.2259 16.0091C25.2082 15.9522 25.1784 15.8998 25.1386 15.8556C25.0987 15.8113 25.0498 15.7762 24.9951 15.7526C24.9404 15.729 24.8812 15.7176 24.8217 15.719H21.6712C21.5467 15.719 21.4273 15.7684 21.3392 15.8563C21.2511 15.9442 21.2015 16.0635 21.2012 16.188V17.594ZM21.2012 13.375C21.2017 13.4994 21.2514 13.6185 21.3395 13.7064C21.4275 13.7943 21.5468 13.8437 21.6712 13.844H25.0222C25.1503 13.8415 25.2733 13.793 25.3687 13.7075C25.4641 13.622 25.5257 13.5051 25.5422 13.378L25.7442 11.497C25.7518 11.4379 25.7465 11.3779 25.7287 11.321C25.7109 11.2642 25.6811 11.2118 25.6412 11.1675C25.6013 11.1233 25.5523 11.0882 25.4976 11.0646C25.4429 11.041 25.3837 11.0296 25.3242 11.031H21.6707C21.5462 11.031 21.4268 11.0804 21.3387 11.1683C21.2506 11.2562 21.201 11.3755 21.2007 11.5L21.2012 13.375ZM16.1217 21.8155C16.1383 21.9425 16.1999 22.0594 16.2953 22.1449C16.3907 22.2304 16.5136 22.2789 16.6417 22.2815H18.8517C18.976 22.2812 19.0952 22.2318 19.1832 22.1439C19.2712 22.056 19.3208 21.9369 19.3212 21.8125V20.406C19.3209 20.2816 19.2714 20.1624 19.1834 20.0745C19.0953 19.9866 18.9761 19.9371 18.8517 19.937H16.3897C16.1317 19.937 15.9417 20.1465 15.9697 20.403L16.1217 21.8155ZM15.6687 17.5965C15.6853 17.7235 15.7469 17.8404 15.8423 17.9259C15.9377 18.0114 16.0606 18.0599 16.1887 18.0625H18.8517C18.976 18.0622 19.0952 18.0128 19.1832 17.9249C19.2712 17.837 19.3208 17.7179 19.3212 17.5935V16.187C19.3209 16.0626 19.2714 15.9434 19.1834 15.8555C19.0953 15.7676 18.9761 15.7181 18.8517 15.718H15.9367C15.6782 15.718 15.4887 15.9275 15.5172 16.184L15.6687 17.5965ZM15.2157 13.378C15.2323 13.505 15.2939 13.6219 15.3893 13.7074C15.4847 13.7929 15.6076 13.8414 15.7357 13.844H18.8517C18.976 13.8437 19.0952 13.7943 19.1832 13.7064C19.2712 13.6185 19.3208 13.4994 19.3212 13.375V11.5C19.3209 11.3756 19.2714 11.2564 19.1834 11.1685C19.0953 11.0806 18.9761 11.0311 18.8517 11.031H15.4332C15.1747 11.031 14.9852 11.2405 15.0127 11.497L15.2157 13.378ZM11.5997 22.2815V22.278L11.6037 22.2815H13.8117C13.8262 22.2815 13.8387 22.2745 13.8532 22.2725C13.8557 22.2555 13.8557 22.2385 13.8587 22.2205L13.8807 22.2665C13.8746 22.2681 13.8684 22.2695 13.8622 22.2705C14.0927 22.244 14.2577 22.0535 14.2312 21.8155L14.0802 20.4035C14.0634 20.2765 14.0017 20.1598 13.9064 20.0743C13.811 19.9889 13.6882 19.9403 13.5602 19.9375H11.0222C10.7637 19.9375 10.5857 20.1455 10.6247 20.401L10.8462 21.818C10.8847 22.073 11.1287 22.2815 11.3872 22.2815H11.5997Z" fill="#707070"/>
</svg>
