<svg xmlns="http://www.w3.org/2000/svg" viewBox="0 0 86 45"><path fill="#FFF" d="M8 7.1h71.1v29.5H8z"/><g fill="#BD2036"><path d="M43 12.8c-5 0-9 4.3-9 9.3 0 4.9 4.1 9.3 9 9.3 1.8 0 3.4-.6 4.8-1.5l-2.7-3 2.4-1.9 2.4 2.7c1.2-1.6 2-3.6 2-5.6.1-4.9-3.9-9.3-8.9-9.3z"/><path d="M80.5.1H5.6C2.5.1 0 2.6 0 5.7v33.8c0 3 2.5 5.5 5.6 5.5h74.9c3.1 0 5.6-2.5 5.6-5.6V5.7c0-3.1-2.5-5.6-5.6-5.6zM25 33.9H10.6V10.2h13.8v3H13.8v7.1h9.7v3h-9.7v7.6H25v3zm30.2-.4l-2.5 1.9-2.7-3.1c-1.9 1.3-4.4 2.1-7 2.1-6.8 0-12.4-5.4-12.4-12.4S36.2 9.7 43 9.7c6.8 0 12.4 5.4 12.4 12.4 0 3.1-1.1 6-3.1 8.2l2.9 3.2zm13.4 1c-3.6 0-6.1-1.2-8.2-4.2l2.5-1.9c1.3 1.9 2.9 3.1 5.3 3.1 2.7 0 4.8-1.4 4.8-4.3 0-2.1-1.7-4.2-5.1-4.2h-2.3v-3H67c4.1 0 5.3-1.1 5.3-3.5 0-2.5-2-3.6-4.2-3.6-2 0-3.5.9-4.5 2.5L61 13.3c1.8-2.3 4.2-3.6 7.1-3.6 3.7 0 7.6 2.3 7.6 6.4 0 2.5-1.3 4.1-3.2 5.1 2.4 1 4 3.3 4 6 0 4.6-3.7 7.3-7.9 7.3z"/></g></svg>